<?xml version="1.0" encoding="UTF-8"?>
<svg version="1.1" xmlns="http://www.w3.org/2000/svg" width="675" height="549">
<path d="M0 0 C1.64411256 0.84204144 3.27281854 1.71469012 4.88671875 2.61328125 C8.91865347 4.7454427 13.1515734 6.25119295 17.421875 7.8359375 C22.75767932 9.87050003 27.94130488 12.18499769 33.08984375 14.64746094 C38.54922734 17.25539262 43.91604839 19.65830368 49.70703125 21.44921875 C53.82786186 22.75187801 57.70400426 24.62558192 61.60546875 26.46484375 C67.15556872 29.07248933 72.57114181 31.45721723 78.42578125 33.2734375 C81.69081949 34.43616695 84.69732432 36.03664471 87.75 37.66796875 C90.23039221 38.86903658 92.69360889 39.8917166 95.2578125 40.89453125 C101.5778547 43.3872969 107.63867724 46.36081433 113.7421875 49.3359375 C118.78427725 51.7710801 123.84900521 53.97818881 129.06201172 56.01953125 C133.59200307 57.85490614 137.9967307 59.94978295 142.41015625 62.046875 C143.32474609 62.47226562 144.23933594 62.89765625 145.18164062 63.3359375 C149.79170493 65.52194617 153.70586484 67.69642299 157.59765625 71.046875 C159.29921875 71.85125 159.29921875 71.85125 161.03515625 72.671875 C166.69271624 75.35405795 171.58829362 79.21980707 176.62109375 82.90234375 C179.35314054 84.99128211 179.35314054 84.99128211 181.59765625 86.046875 C181.59765625 86.706875 181.59765625 87.366875 181.59765625 88.046875 C182.52578125 88.5109375 182.52578125 88.5109375 183.47265625 88.984375 C184.84765625 89.671875 186.22265625 90.359375 187.59765625 91.046875 C187.59765625 91.706875 187.59765625 92.366875 187.59765625 93.046875 C188.1803125 93.3046875 188.76296875 93.5625 189.36328125 93.828125 C191.77794655 95.14521517 193.41505802 96.59775884 195.34765625 98.546875 C195.96125 99.1553125 196.57484375 99.76375 197.20703125 100.390625 C198.59765625 102.046875 198.59765625 102.046875 198.59765625 104.046875 C199.25765625 104.046875 199.91765625 104.046875 200.59765625 104.046875 C200.59765625 104.706875 200.59765625 105.366875 200.59765625 106.046875 C201.25765625 106.046875 201.91765625 106.046875 202.59765625 106.046875 C202.92765625 107.366875 203.25765625 108.686875 203.59765625 110.046875 C204.25765625 110.046875 204.91765625 110.046875 205.59765625 110.046875 C207.30353261 112.4532174 208.8739144 114.84723721 210.41015625 117.359375 C210.85939453 118.08761475 211.30863281 118.81585449 211.77148438 119.56616211 C216.48448121 127.32396696 220.49083176 135.16811464 222.59765625 144.046875 C222.96697266 145.58988281 222.96697266 145.58988281 223.34375 147.1640625 C227.68893297 166.16644162 227.55974711 185.17193609 222.59765625 204.046875 C222.35917969 205.02011719 222.12070312 205.99335938 221.875 206.99609375 C220.2780427 213.25302481 218.15321276 219.12298559 215.59765625 225.046875 C215.33355957 225.66916992 215.06946289 226.29146484 214.79736328 226.93261719 C209.95573688 238.30736137 204.50008671 249.26451248 198.61572266 260.13427734 C197.5752312 262.08900398 196.57975155 264.06225859 195.59765625 266.046875 C194.93765625 266.046875 194.27765625 266.046875 193.59765625 266.046875 C193.32953125 267.078125 193.06140625 268.109375 192.78515625 269.171875 C191.77405353 272.6999781 190.42479164 275.84938808 188.59765625 279.046875 C187.60765625 279.541875 187.60765625 279.541875 186.59765625 280.046875 C185.63096008 281.94693298 184.66909799 283.84975034 183.7421875 285.76953125 C182.57437352 288.09320207 181.31754684 290.32125961 179.97265625 292.546875 C179.56789063 293.2171875 179.163125 293.8875 178.74609375 294.578125 C178.36710938 295.0628125 177.988125 295.5475 177.59765625 296.046875 C176.93765625 296.046875 176.27765625 296.046875 175.59765625 296.046875 C175.30890625 297.18125 175.02015625 298.315625 174.72265625 299.484375 C174.35140625 300.66 173.98015625 301.835625 173.59765625 303.046875 C172.60765625 303.541875 172.60765625 303.541875 171.59765625 304.046875 C170.46415091 306.06357327 170.46415091 306.06357327 169.59765625 308.046875 C168.93765625 308.046875 168.27765625 308.046875 167.59765625 308.046875 C167.49453125 308.81 167.39140625 309.573125 167.28515625 310.359375 C166.54114428 313.26778543 165.79960038 314.12017388 163.59765625 316.046875 C163.26765625 316.706875 162.93765625 317.366875 162.59765625 318.046875 C161.93765625 318.046875 161.27765625 318.046875 160.59765625 318.046875 C160.26765625 319.366875 159.93765625 320.686875 159.59765625 322.046875 C158.93765625 322.046875 158.27765625 322.046875 157.59765625 322.046875 C157.26765625 323.366875 156.93765625 324.686875 156.59765625 326.046875 C155.93765625 326.046875 155.27765625 326.046875 154.59765625 326.046875 C154.44296875 326.9440625 154.44296875 326.9440625 154.28515625 327.859375 C153.49941592 330.35945786 152.62846772 331.42222582 150.59765625 333.046875 C149.93765625 333.046875 149.27765625 333.046875 148.59765625 333.046875 C148.34242188 333.60761719 148.0871875 334.16835938 147.82421875 334.74609375 C144.10385923 341.72472992 138.46220542 347.49991576 132.421875 352.5078125 C130.74441032 353.92306108 129.234897 355.39674395 127.72265625 356.984375 C125.59765625 359.046875 125.59765625 359.046875 123.59765625 359.046875 C123.59765625 359.706875 123.59765625 360.366875 123.59765625 361.046875 C121.94765625 361.706875 120.29765625 362.366875 118.59765625 363.046875 C118.59765625 363.706875 118.59765625 364.366875 118.59765625 365.046875 C116.91796875 366.265625 116.91796875 366.265625 114.72265625 367.546875 C112.34403139 368.94506309 110.55973541 370.08479584 108.59765625 372.046875 C106.47265625 372.671875 106.47265625 372.671875 104.59765625 373.046875 C104.59765625 373.706875 104.59765625 374.366875 104.59765625 375.046875 C103.60765625 375.046875 102.61765625 375.046875 101.59765625 375.046875 C101.26765625 375.706875 100.93765625 376.366875 100.59765625 377.046875 C99.11008475 377.89940135 97.58122771 378.68070486 96.03515625 379.421875 C94.67970703 380.07736328 94.67970703 380.07736328 93.296875 380.74609375 C91.96076172 381.38998047 91.96076172 381.38998047 90.59765625 382.046875 C88.58985772 383.0771464 86.58428771 384.11134758 84.58203125 385.15234375 C81.97833434 386.32605751 79.31691532 387.17523131 76.59765625 388.046875 C75.581875 388.376875 74.56609375 388.706875 73.51953125 389.046875 C61.06005555 392.97498556 48.9397305 394.99920222 35.91015625 395.609375 C34.59023682 395.6719751 34.59023682 395.6719751 33.24365234 395.73583984 C16.32617731 396.49509637 0.1339522 395.57848926 -16.49121094 392.40673828 C-19.06056132 391.92293367 -21.6379926 391.488727 -24.21484375 391.046875 C-33.06041702 389.41425785 -41.54249286 387.1778577 -49.9296875 383.9140625 C-52.3544072 382.99177617 -52.3544072 382.99177617 -54.7890625 382.609375 C-58.14989273 381.8859676 -61.15477707 380.56933719 -64.27734375 379.171875 C-64.94846191 378.87522949 -65.61958008 378.57858398 -66.31103516 378.27294922 C-77.11461117 373.44694956 -87.81907093 368.33851141 -98.40234375 363.046875 C-98.40234375 362.386875 -98.40234375 361.726875 -98.40234375 361.046875 C-99.35109375 360.7375 -100.29984375 360.428125 -101.27734375 360.109375 C-104.40234375 359.046875 -104.40234375 359.046875 -106.40234375 358.046875 C-106.40234375 357.386875 -106.40234375 356.726875 -106.40234375 356.046875 C-107.12035156 355.79035156 -107.83835937 355.53382813 -108.578125 355.26953125 C-111.57374376 353.97267278 -113.94993357 352.39741127 -116.58984375 350.484375 C-119.88112698 348.07486861 -119.88112698 348.07486861 -123.40234375 346.046875 C-123.40234375 345.386875 -123.40234375 344.726875 -123.40234375 344.046875 C-124.72234375 343.716875 -126.04234375 343.386875 -127.40234375 343.046875 C-127.40234375 342.386875 -127.40234375 341.726875 -127.40234375 341.046875 C-128.33046875 340.5828125 -128.33046875 340.5828125 -129.27734375 340.109375 C-130.65234375 339.421875 -132.02734375 338.734375 -133.40234375 338.046875 C-133.40234375 337.386875 -133.40234375 336.726875 -133.40234375 336.046875 C-133.98661133 335.78712891 -134.57087891 335.52738281 -135.17285156 335.25976562 C-137.55795539 333.962219 -139.15425012 332.55346378 -141.07421875 330.640625 C-141.73808594 329.97933594 -142.40195312 329.31804687 -143.0859375 328.63671875 C-143.76785156 327.94707031 -144.44976562 327.25742187 -145.15234375 326.546875 C-146.19841797 325.51240234 -146.19841797 325.51240234 -147.265625 324.45703125 C-147.92433594 323.79574219 -148.58304687 323.13445312 -149.26171875 322.453125 C-149.86467773 321.84791016 -150.46763672 321.24269531 -151.08886719 320.61914062 C-152.40234375 319.046875 -152.40234375 319.046875 -152.40234375 317.046875 C-152.98628906 316.79421875 -153.57023437 316.5415625 -154.171875 316.28125 C-156.66652957 314.90067059 -158.19366993 313.41927346 -160.08984375 311.296875 C-160.69183594 310.64203125 -161.29382813 309.9871875 -161.9140625 309.3125 C-163.72811992 306.55094277 -163.86714345 304.2905132 -164.40234375 301.046875 C-166.00083816 297.86525022 -166.00083816 297.86525022 -167.96484375 294.796875 C-171.40234375 289.23600981 -171.40234375 289.23600981 -171.40234375 287.046875 C-172.06234375 287.046875 -172.72234375 287.046875 -173.40234375 287.046875 C-174.73012598 285.51098563 -175.99070316 283.91657918 -177.21484375 282.296875 C-180.40680802 278.07385071 -183.60125209 274.44742083 -188.40234375 272.046875 C-188.40234375 271.386875 -188.40234375 270.726875 -188.40234375 270.046875 C-189.72234375 269.716875 -191.04234375 269.386875 -192.40234375 269.046875 C-192.40234375 268.386875 -192.40234375 267.726875 -192.40234375 267.046875 C-193.54703125 266.675625 -193.54703125 266.675625 -194.71484375 266.296875 C-196.74159325 265.60984127 -198.76385347 264.90598813 -200.7578125 264.12890625 C-217.23314042 257.7772658 -238.36261558 253.49071795 -255.52734375 259.609375 C-264.41748777 263.60559609 -271.31733148 269.55762913 -277.40234375 277.046875 C-278.06234375 277.046875 -278.72234375 277.046875 -279.40234375 277.046875 C-279.65628906 277.61277344 -279.91023437 278.17867188 -280.171875 278.76171875 C-281.55885774 281.33754384 -283.21035737 283.36802287 -285.08984375 285.609375 C-288.8235464 290.17278935 -291.94242258 294.93044922 -294.95703125 299.9921875 C-295.43398438 300.67023438 -295.9109375 301.34828125 -296.40234375 302.046875 C-297.06234375 302.046875 -297.72234375 302.046875 -298.40234375 302.046875 C-298.60859375 303.01625 -298.81484375 303.985625 -299.02734375 304.984375 C-299.92170351 308.14311071 -301.22408434 310.40870933 -303.1328125 313.0703125 C-306.7349394 318.35390098 -309.4063385 323.94325808 -312.08984375 329.734375 C-313.03089736 331.73844688 -313.97229347 333.74235797 -314.9140625 335.74609375 C-315.34662354 336.67349365 -315.77918457 337.60089355 -316.22485352 338.55639648 C-317.16932044 340.55401354 -318.15774616 342.53082107 -319.16015625 344.5 C-323.24964349 352.88473485 -324.0472687 363.54902968 -321.38671875 372.44140625 C-319.54967871 377.01740658 -317.95493838 380.6088802 -314.40234375 384.046875 C-314.40234375 384.706875 -314.40234375 385.366875 -314.40234375 386.046875 C-313.74234375 386.046875 -313.08234375 386.046875 -312.40234375 386.046875 C-311.242549 387.24078136 -310.08308853 388.4350142 -308.92529297 389.63085938 C-303.16921765 394.98277295 -295.43810044 398.08410895 -288.40234375 401.359375 C-287.43683594 401.81376953 -286.47132813 402.26816406 -285.4765625 402.73632812 C-283.12055775 403.84435016 -280.76250769 404.94774768 -278.40234375 406.046875 C-277.74234375 405.056875 -277.08234375 404.066875 -276.40234375 403.046875 C-275.74234375 403.046875 -275.08234375 403.046875 -274.40234375 403.046875 C-274.21671875 402.263125 -274.03109375 401.479375 -273.83984375 400.671875 C-272.14915442 396.40839756 -269.76996238 393.15726777 -267.08984375 389.4609375 C-265.18825658 386.74061141 -263.75422939 384.06873703 -262.40234375 381.046875 C-261.74234375 381.046875 -261.08234375 381.046875 -260.40234375 381.046875 C-259.96921875 379.3453125 -259.96921875 379.3453125 -259.52734375 377.609375 C-259.15609375 376.43375 -258.78484375 375.258125 -258.40234375 374.046875 C-257.74234375 373.716875 -257.08234375 373.386875 -256.40234375 373.046875 C-255.53576059 371.66262996 -254.73126612 370.23899061 -253.96484375 368.796875 C-253.5265625 367.98863281 -253.08828125 367.18039062 -252.63671875 366.34765625 C-252.229375 365.58839844 -251.82203125 364.82914062 -251.40234375 364.046875 C-249.71484375 360.984375 -249.71484375 360.984375 -248.40234375 359.046875 C-247.74234375 359.046875 -247.08234375 359.046875 -246.40234375 359.046875 C-246.09296875 358.098125 -245.78359375 357.149375 -245.46484375 356.171875 C-244.40234375 353.046875 -244.40234375 353.046875 -243.40234375 351.046875 C-242.74234375 351.046875 -242.08234375 351.046875 -241.40234375 351.046875 C-241.16644531 350.20640625 -240.93054688 349.3659375 -240.6875 348.5 C-239.20368567 344.51309463 -237.19701534 341.31215144 -234.83984375 337.796875 C-231.94353846 333.52661622 -231.94353846 333.52661622 -229.40234375 329.046875 C-228.74234375 329.046875 -228.08234375 329.046875 -227.40234375 329.046875 C-227.15484375 328.345625 -226.90734375 327.644375 -226.65234375 326.921875 C-225.23643175 323.6652774 -223.41228572 320.97042696 -221.40234375 318.046875 C-220.39685703 316.38351268 -219.39778726 314.7162671 -218.40234375 313.046875 C-217.00903993 310.7744311 -215.61369314 308.50339472 -214.21484375 306.234375 C-213.84681641 305.63689453 -213.47878906 305.03941406 -213.09960938 304.42382812 C-212.20077756 302.96468557 -211.3015967 301.50575805 -210.40234375 300.046875 C-206.63762932 301.30177981 -206.30797355 302.46993449 -204.40234375 305.859375 C-202.93578198 308.44495395 -201.5254255 310.88646985 -199.71484375 313.24609375 C-198.40234375 315.046875 -198.40234375 315.046875 -198.40234375 317.046875 C-197.74234375 317.046875 -197.08234375 317.046875 -196.40234375 317.046875 C-194.23030375 320.00874772 -192.56672378 322.55373491 -191.40234375 326.046875 C-190.74234375 326.046875 -190.08234375 326.046875 -189.40234375 326.046875 C-186.40234375 329.50841346 -186.40234375 329.50841346 -186.40234375 332.046875 C-185.74234375 332.046875 -185.08234375 332.046875 -184.40234375 332.046875 C-184.40234375 332.706875 -184.40234375 333.366875 -184.40234375 334.046875 C-183.74234375 334.046875 -183.08234375 334.046875 -182.40234375 334.046875 C-182.40234375 334.706875 -182.40234375 335.366875 -182.40234375 336.046875 C-181.74234375 336.046875 -181.08234375 336.046875 -180.40234375 336.046875 C-177.40234375 339.50841346 -177.40234375 339.50841346 -177.40234375 342.046875 C-176.74234375 342.046875 -176.08234375 342.046875 -175.40234375 342.046875 C-175.40234375 342.706875 -175.40234375 343.366875 -175.40234375 344.046875 C-174.74234375 344.046875 -174.08234375 344.046875 -173.40234375 344.046875 C-173.40234375 344.706875 -173.40234375 345.366875 -173.40234375 346.046875 C-172.81710937 346.30339844 -172.231875 346.55992187 -171.62890625 346.82421875 C-169.20999767 348.15249662 -167.67035503 349.61212301 -165.77734375 351.609375 C-163.35712416 354.18702889 -163.35712416 354.18702889 -160.40234375 356.046875 C-160.40234375 356.706875 -160.40234375 357.366875 -160.40234375 358.046875 C-159.08234375 358.376875 -157.76234375 358.706875 -156.40234375 359.046875 C-156.40234375 359.706875 -156.40234375 360.366875 -156.40234375 361.046875 C-155.8403125 361.3046875 -155.27828125 361.5625 -154.69921875 361.828125 C-152.13529796 363.18857277 -149.9500801 364.77476462 -147.65234375 366.546875 C-146.853125 367.1553125 -146.05390625 367.76375 -145.23046875 368.390625 C-144.6271875 368.9371875 -144.02390625 369.48375 -143.40234375 370.046875 C-143.40234375 370.706875 -143.40234375 371.366875 -143.40234375 372.046875 C-142.08234375 372.376875 -140.76234375 372.706875 -139.40234375 373.046875 C-139.40234375 373.706875 -139.40234375 374.366875 -139.40234375 375.046875 C-138.08234375 375.376875 -136.76234375 375.706875 -135.40234375 376.046875 C-135.40234375 376.706875 -135.40234375 377.366875 -135.40234375 378.046875 C-134.68046875 378.315 -133.95859375 378.583125 -133.21484375 378.859375 C-130.40467992 380.04588862 -127.91817818 381.32173139 -125.40234375 383.046875 C-125.40234375 383.706875 -125.40234375 384.366875 -125.40234375 385.046875 C-124.47421875 385.315 -123.54609375 385.583125 -122.58984375 385.859375 C-119.48583442 387.01577063 -118.58834569 387.76582949 -116.40234375 390.046875 C-113.80318837 391.23715484 -113.80318837 391.23715484 -111.40234375 392.046875 C-111.40234375 392.706875 -111.40234375 393.366875 -111.40234375 394.046875 C-110.08234375 394.706875 -108.76234375 395.366875 -107.40234375 396.046875 C-108.39234375 398.026875 -109.38234375 400.006875 -110.40234375 402.046875 C-111.06234375 402.046875 -111.72234375 402.046875 -112.40234375 402.046875 C-112.80453125 403.6865625 -112.80453125 403.6865625 -113.21484375 405.359375 C-114.38013137 408.97789971 -114.80404361 409.6484441 -117.40234375 412.046875 C-118.33533074 413.64628127 -119.26351068 415.24887871 -120.15625 416.87109375 C-122.27110521 420.56380332 -124.61016899 424.11469792 -126.9140625 427.69140625 C-128.39373501 429.94658256 -128.39373501 429.94658256 -129.40234375 432.046875 C-130.06234375 432.046875 -130.72234375 432.046875 -131.40234375 432.046875 C-131.71171875 433.2225 -131.71171875 433.2225 -132.02734375 434.421875 C-133.87547765 439.29422802 -136.33271935 443.82614145 -139.40234375 448.046875 C-140.06234375 448.046875 -140.72234375 448.046875 -141.40234375 448.046875 C-141.58796875 448.830625 -141.77359375 449.614375 -141.96484375 450.421875 C-143.65553308 454.68535244 -146.03472512 457.93648223 -148.71484375 461.6328125 C-150.61643092 464.35313859 -152.05045811 467.02501297 -153.40234375 470.046875 C-154.06234375 470.046875 -154.72234375 470.046875 -155.40234375 470.046875 C-155.65113281 470.92472656 -155.89992188 471.80257813 -156.15625 472.70703125 C-157.46365348 476.21120045 -159.0491357 478.54527287 -161.33984375 481.484375 C-164.44121114 485.59522906 -166.53824881 489.28307681 -168.40234375 494.046875 C-169.06234375 494.376875 -169.72234375 494.706875 -170.40234375 495.046875 C-171.42171318 497.03707247 -172.41696854 499.0396292 -173.40234375 501.046875 C-174.2363019 502.5168582 -175.09115664 503.97515193 -175.96484375 505.421875 C-176.37863281 506.11023438 -176.79242188 506.79859375 -177.21875 507.5078125 C-177.60933594 508.01570313 -177.99992187 508.52359375 -178.40234375 509.046875 C-179.06234375 509.046875 -179.72234375 509.046875 -180.40234375 509.046875 C-180.80453125 510.6865625 -180.80453125 510.6865625 -181.21484375 512.359375 C-182.38013137 515.97789971 -182.80404361 516.6484441 -185.40234375 519.046875 C-186.33533074 520.64628127 -187.26351068 522.24887871 -188.15625 523.87109375 C-190.27110521 527.56380332 -192.61016899 531.11469792 -194.9140625 534.69140625 C-196.39373501 536.94658256 -196.39373501 536.94658256 -197.40234375 539.046875 C-198.06234375 539.046875 -198.72234375 539.046875 -199.40234375 539.046875 C-199.73234375 540.036875 -200.06234375 541.026875 -200.40234375 542.046875 C-205.05956827 545.081526 -210.7856339 548.16388979 -216.40234375 548.046875 C-217.93110236 547.52344135 -219.44014174 546.94121693 -220.93359375 546.32421875 C-221.82175781 545.95868896 -222.70992187 545.59315918 -223.625 545.21655273 C-228.94571764 542.97573362 -234.24851263 540.69543116 -239.546875 538.40234375 C-244.7283343 536.16855907 -249.9304155 534.01578891 -255.18725586 531.96508789 C-257.34460268 531.07081021 -259.39753294 530.06877275 -261.46484375 528.984375 C-264.96780419 527.17639542 -268.5160913 525.94679514 -272.265625 524.75 C-276.51294518 523.35234437 -280.51499629 521.46632833 -284.55078125 519.55859375 C-285.69804687 519.01847656 -286.8453125 518.47835937 -288.02734375 517.921875 C-289.65542969 517.14457031 -289.65542969 517.14457031 -291.31640625 516.3515625 C-294.24144215 514.98751435 -294.24144215 514.98751435 -296.8828125 514.57421875 C-300.29215518 513.8606354 -303.00756629 512.3462715 -306.08984375 510.734375 C-310.07524327 508.65366245 -313.99975982 506.77285142 -318.1875 505.13671875 C-324.59120333 502.62764406 -330.72097949 499.59606837 -336.8984375 496.58203125 C-342.02234918 494.09545833 -342.02234918 494.09545833 -347.34375 492.08984375 C-352.32436466 490.39147323 -356.91020515 487.874694 -361.58984375 485.484375 C-363.56159531 484.48129259 -365.53421335 483.47991107 -367.5078125 482.48046875 C-368.80948364 481.81615845 -368.80948364 481.81615845 -370.13745117 481.13842773 C-372.47959667 479.95056584 -372.47959667 479.95056584 -375.40234375 479.046875 C-375.40234375 478.386875 -375.40234375 477.726875 -375.40234375 477.046875 C-376.08296875 476.77875 -376.76359375 476.510625 -377.46484375 476.234375 C-378.43421875 475.8425 -379.40359375 475.450625 -380.40234375 475.046875 C-382.19671875 474.3353125 -382.19671875 474.3353125 -384.02734375 473.609375 C-386.99958433 472.2333377 -388.28426997 471.36667009 -390.40234375 469.046875 C-392.50224027 467.87112789 -392.50224027 467.87112789 -394.40234375 467.046875 C-394.40234375 466.386875 -394.40234375 465.726875 -394.40234375 465.046875 C-395.46001953 464.675625 -395.46001953 464.675625 -396.5390625 464.296875 C-399.77121818 462.88583841 -402.36563277 461.1218024 -405.21484375 459.046875 C-406.19066406 458.345625 -407.16648437 457.644375 -408.171875 456.921875 C-408.90792969 456.303125 -409.64398438 455.684375 -410.40234375 455.046875 C-410.40234375 454.386875 -410.40234375 453.726875 -410.40234375 453.046875 C-411.06234375 453.046875 -411.72234375 453.046875 -412.40234375 453.046875 C-412.40234375 452.386875 -412.40234375 451.726875 -412.40234375 451.046875 C-413.39234375 450.716875 -414.38234375 450.386875 -415.40234375 450.046875 C-415.40234375 449.386875 -415.40234375 448.726875 -415.40234375 448.046875 C-416.06234375 448.046875 -416.72234375 448.046875 -417.40234375 448.046875 C-417.40234375 447.386875 -417.40234375 446.726875 -417.40234375 446.046875 C-418.06234375 446.046875 -418.72234375 446.046875 -419.40234375 446.046875 C-419.40234375 445.386875 -419.40234375 444.726875 -419.40234375 444.046875 C-420.06234375 444.046875 -420.72234375 444.046875 -421.40234375 444.046875 C-421.40234375 443.386875 -421.40234375 442.726875 -421.40234375 442.046875 C-422.06234375 442.046875 -422.72234375 442.046875 -423.40234375 442.046875 C-423.89734375 440.066875 -423.89734375 440.066875 -424.40234375 438.046875 C-425.06234375 438.046875 -425.72234375 438.046875 -426.40234375 438.046875 C-427.06234375 436.396875 -427.72234375 434.746875 -428.40234375 433.046875 C-429.06234375 433.046875 -429.72234375 433.046875 -430.40234375 433.046875 C-447.21462254 404.51361753 -453.0704229 375.68389991 -445.03369141 343.10888672 C-443.53153768 337.36246065 -441.71673665 331.83011831 -439.33203125 326.390625 C-438.2996707 323.91797223 -438.2996707 323.91797223 -437.50390625 320.71484375 C-436.34460119 316.85460457 -434.75326537 313.41827577 -432.90234375 309.859375 C-432.19369655 308.47021215 -431.48538028 307.08088045 -430.77734375 305.69140625 C-430.39835937 304.95229004 -430.019375 304.21317383 -429.62890625 303.45166016 C-427.35738402 298.99813827 -425.1338015 294.5205647 -422.90234375 290.046875 C-422.03794806 288.31761452 -421.17338072 286.58843984 -420.30859375 284.859375 C-419.94056641 284.12332031 -419.57253906 283.38726562 -419.19335938 282.62890625 C-418.93232422 282.10683594 -418.67128906 281.58476562 -418.40234375 281.046875 C-417.74234375 281.046875 -417.08234375 281.046875 -416.40234375 281.046875 C-416.15484375 280.221875 -415.90734375 279.396875 -415.65234375 278.546875 C-414.21529564 274.52314029 -412.3787986 270.82708476 -410.40234375 267.046875 C-409.74234375 267.046875 -409.08234375 267.046875 -408.40234375 267.046875 C-408.13679688 266.16257812 -407.87125 265.27828125 -407.59765625 264.3671875 C-406.44947493 261.17779493 -405.13275983 258.74383341 -403.27734375 255.921875 C-402.64957031 254.96410156 -402.02179688 254.00632813 -401.375 253.01953125 C-400.72402344 252.03855469 -400.07304687 251.05757812 -399.40234375 250.046875 C-398.80292969 249.11746094 -398.20351563 248.18804687 -397.5859375 247.23046875 C-393.17178921 240.45719318 -388.43732207 233.98572063 -383.52661133 227.56567383 C-380.92863536 224.15585702 -378.55776194 220.76124346 -376.40234375 217.046875 C-374.83984375 215.234375 -374.83984375 215.234375 -373.40234375 214.046875 C-372.74234375 214.046875 -372.08234375 214.046875 -371.40234375 214.046875 C-371.07234375 212.726875 -370.74234375 211.406875 -370.40234375 210.046875 C-369.74234375 210.046875 -369.08234375 210.046875 -368.40234375 210.046875 C-368.07234375 209.056875 -367.74234375 208.066875 -367.40234375 207.046875 C-366.74234375 207.046875 -366.08234375 207.046875 -365.40234375 207.046875 C-365.17546875 206.510625 -364.94859375 205.974375 -364.71484375 205.421875 C-362.94664286 202.22227339 -360.86564172 199.75650277 -358.40234375 197.046875 C-357.74234375 197.046875 -357.08234375 197.046875 -356.40234375 197.046875 C-356.07234375 196.056875 -355.74234375 195.066875 -355.40234375 194.046875 C-353.66015625 192.2578125 -353.66015625 192.2578125 -351.52734375 190.421875 C-350.47933594 189.50535156 -350.47933594 189.50535156 -349.41015625 188.5703125 C-347.40234375 187.046875 -347.40234375 187.046875 -344.40234375 186.046875 C-344.40234375 185.386875 -344.40234375 184.726875 -344.40234375 184.046875 C-342.94140625 182.7578125 -342.94140625 182.7578125 -341.02734375 181.421875 C-340.40085937 180.97585937 -339.774375 180.52984375 -339.12890625 180.0703125 C-337.40234375 179.046875 -337.40234375 179.046875 -335.40234375 179.046875 C-335.40234375 178.386875 -335.40234375 177.726875 -335.40234375 177.046875 C-334.01293945 175.93359375 -334.01293945 175.93359375 -332.078125 174.734375 C-331.02915039 174.08082031 -331.02915039 174.08082031 -329.95898438 173.4140625 C-329.21841797 172.96289062 -328.47785156 172.51171875 -327.71484375 172.046875 C-326.99361328 171.59570312 -326.27238281 171.14453125 -325.52929688 170.6796875 C-321.90145359 168.44003265 -318.42318082 166.50775638 -314.40234375 165.046875 C-312.69045508 164.26292598 -310.98225177 163.4708916 -309.27734375 162.671875 C-301.52431595 159.1392454 -293.79772999 156.15311231 -285.4296875 154.4765625 C-283.1872217 154.03482304 -283.1872217 154.03482304 -280.21484375 153.046875 C-275.41986576 151.78917585 -270.61713502 151.16174343 -265.70703125 150.51171875 C-263.80547588 150.24424229 -261.90671629 149.93850433 -260.03076172 149.52832031 C-245.76887534 146.91598147 -229.6544317 148.80544871 -215.40234375 151.046875 C-214.73928223 151.14339355 -214.0762207 151.23991211 -213.39306641 151.33935547 C-196.74725632 153.77328064 -180.1784382 158.22422175 -164.40234375 164.046875 C-163.33242188 164.44003906 -162.2625 164.83320313 -161.16015625 165.23828125 C-149.25743088 169.80924033 -137.85270805 175.45674537 -126.40234375 181.046875 C-126.40234375 181.706875 -126.40234375 182.366875 -126.40234375 183.046875 C-125.49484375 183.335625 -124.58734375 183.624375 -123.65234375 183.921875 C-121.08031467 184.81219276 -118.78887609 185.76181913 -116.40234375 187.046875 C-116.40234375 187.706875 -116.40234375 188.366875 -116.40234375 189.046875 C-114.42234375 189.706875 -112.44234375 190.366875 -110.40234375 191.046875 C-110.40234375 191.706875 -110.40234375 192.366875 -110.40234375 193.046875 C-109.51546875 193.27375 -108.62859375 193.500625 -107.71484375 193.734375 C-103.85758453 195.26272299 -102.2968371 197.08659771 -99.40234375 200.046875 C-96.77648248 201.92422419 -94.11002517 203.72108767 -91.4140625 205.49609375 C-90.75019531 206.00785156 -90.08632813 206.51960937 -89.40234375 207.046875 C-89.40234375 207.706875 -89.40234375 208.366875 -89.40234375 209.046875 C-88.74234375 209.046875 -88.08234375 209.046875 -87.40234375 209.046875 C-87.40234375 209.706875 -87.40234375 210.366875 -87.40234375 211.046875 C-86.81710937 211.30339844 -86.231875 211.55992187 -85.62890625 211.82421875 C-83.20999767 213.15249662 -81.67035503 214.61212301 -79.77734375 216.609375 C-77.35712416 219.18702889 -77.35712416 219.18702889 -74.40234375 221.046875 C-74.40234375 221.706875 -74.40234375 222.366875 -74.40234375 223.046875 C-73.74234375 223.046875 -73.08234375 223.046875 -72.40234375 223.046875 C-72.40234375 223.706875 -72.40234375 224.366875 -72.40234375 225.046875 C-71.74234375 225.046875 -71.08234375 225.046875 -70.40234375 225.046875 C-67.40234375 228.50841346 -67.40234375 228.50841346 -67.40234375 231.046875 C-66.74234375 231.046875 -66.08234375 231.046875 -65.40234375 231.046875 C-65.40234375 231.706875 -65.40234375 232.366875 -65.40234375 233.046875 C-64.74234375 233.046875 -64.08234375 233.046875 -63.40234375 233.046875 C-63.40234375 233.706875 -63.40234375 234.366875 -63.40234375 235.046875 C-62.74234375 235.046875 -62.08234375 235.046875 -61.40234375 235.046875 C-60.49062735 236.34431757 -59.59303425 237.65300877 -58.75 238.99609375 C-56.37697759 242.60721481 -53.7120654 246.01321775 -51.109375 249.4609375 C-49.57793927 251.78086989 -48.82846046 253.3375359 -48.40234375 256.046875 C-47.74234375 256.046875 -47.08234375 256.046875 -46.40234375 256.046875 C-45.10546875 257.98828125 -45.10546875 257.98828125 -43.65234375 260.609375 C-34.22268785 276.66466443 -19.56234665 282.74355134 -2.03515625 287.46875 C12.81704532 290.73006429 27.57568751 290.67055402 40.59765625 282.359375 C41.50515625 281.73675781 42.41265625 281.11414063 43.34765625 280.47265625 C45.59765625 279.046875 45.59765625 279.046875 47.59765625 279.046875 C47.92765625 278.056875 48.25765625 277.066875 48.59765625 276.046875 C50.2440559 274.68859529 51.91061432 273.35433249 53.59765625 272.046875 C53.92765625 271.386875 54.25765625 270.726875 54.59765625 270.046875 C55.25765625 270.046875 55.91765625 270.046875 56.59765625 270.046875 C56.59765625 269.386875 56.59765625 268.726875 56.59765625 268.046875 C57.5761582 267.02582949 58.57746052 266.0262629 59.59765625 265.046875 C59.92765625 264.386875 60.25765625 263.726875 60.59765625 263.046875 C61.25765625 263.046875 61.91765625 263.046875 62.59765625 263.046875 C62.87609375 262.47453125 63.15453125 261.9021875 63.44140625 261.3125 C64.58039417 259.08069934 65.79702008 256.93816626 67.09765625 254.796875 C67.52046875 254.09046875 67.94328125 253.3840625 68.37890625 252.65625 C68.78109375 252.12515625 69.18328125 251.5940625 69.59765625 251.046875 C70.25765625 251.046875 70.91765625 251.046875 71.59765625 251.046875 C71.82453125 250.221875 72.05140625 249.396875 72.28515625 248.546875 C73.8785452 244.29783779 76.13136329 240.83537502 78.59765625 237.046875 C84.12054941 228.55382128 88.27966146 219.48112757 92.52514648 210.30810547 C93.57151699 208.10198581 94.6762597 205.93477073 95.796875 203.765625 C97.22921965 200.92570452 98.21879423 198.32331514 98.78515625 195.171875 C99.21486157 192.86672685 99.5461146 191.1499583 100.59765625 189.046875 C100.68929816 176.43694836 97.83913922 167.39953395 89.05078125 158.28515625 C85.19927779 154.770966 81.24689863 152.38011654 76.59765625 150.046875 C75.85499512 149.67079102 75.11233398 149.29470703 74.34716797 148.90722656 C71.79336862 147.62310433 69.22962121 146.36183866 66.66015625 145.109375 C65.81855957 144.69486084 64.97696289 144.28034668 64.10986328 143.85327148 C63.31306152 143.47501221 62.51625977 143.09675293 61.6953125 142.70703125 C60.97867432 142.36293213 60.26203613 142.01883301 59.52368164 141.66430664 C57.41556483 140.77938438 57.41556483 140.77938438 54.59765625 142.046875 C53.11139227 144.17217465 51.77593343 146.2525725 50.47265625 148.484375 C50.11300781 149.08314453 49.75335938 149.68191406 49.3828125 150.29882812 C48.05544553 152.51856353 46.75464924 154.73288903 45.59765625 157.046875 C44.93765625 157.046875 44.27765625 157.046875 43.59765625 157.046875 C43.35015625 157.748125 43.10265625 158.449375 42.84765625 159.171875 C41.43174425 162.4284726 39.60759822 165.12332304 37.59765625 168.046875 C36.58922934 169.70845646 35.58996522 171.37561778 34.59765625 173.046875 C31.59765625 178.046875 31.59765625 178.046875 28.59765625 183.046875 C27.82421875 184.4390625 27.82421875 184.4390625 27.03515625 185.859375 C26.32359375 186.9421875 26.32359375 186.9421875 25.59765625 188.046875 C24.93765625 188.046875 24.27765625 188.046875 23.59765625 188.046875 C23.32953125 189.14 23.06140625 190.233125 22.78515625 191.359375 C21.61986863 194.97789971 21.19595639 195.6484441 18.59765625 198.046875 C17.66466926 199.64628127 16.73648932 201.24887871 15.84375 202.87109375 C13.72889479 206.56380332 11.38983101 210.11469792 9.0859375 213.69140625 C7.60626499 215.94658256 7.60626499 215.94658256 6.59765625 218.046875 C5.93765625 218.046875 5.27765625 218.046875 4.59765625 218.046875 C4.41203125 218.830625 4.22640625 219.614375 4.03515625 220.421875 C2.34446692 224.68535244 -0.03472512 227.93648223 -2.71484375 231.6328125 C-4.61643092 234.35313859 -6.05045811 237.02501297 -7.40234375 240.046875 C-8.06234375 240.046875 -8.72234375 240.046875 -9.40234375 240.046875 C-10.06234375 242.026875 -10.72234375 244.006875 -11.40234375 246.046875 C-12.06234375 246.046875 -12.72234375 246.046875 -13.40234375 246.046875 C-15.12890625 243.7109375 -15.12890625 243.7109375 -17.02734375 240.671875 C-17.97480469 239.17527344 -17.97480469 239.17527344 -18.94140625 237.6484375 C-20.40234375 235.046875 -20.40234375 235.046875 -20.40234375 233.046875 C-21.06234375 233.046875 -21.72234375 233.046875 -22.40234375 233.046875 C-25.40234375 228.66225962 -25.40234375 228.66225962 -25.40234375 226.046875 C-26.06234375 226.046875 -26.72234375 226.046875 -27.40234375 226.046875 C-29.3125 223.96484375 -29.3125 223.96484375 -31.46484375 221.234375 C-32.17769531 220.34105469 -32.89054687 219.44773438 -33.625 218.52734375 C-35.40234375 216.046875 -35.40234375 216.046875 -36.40234375 213.046875 C-37.06234375 213.046875 -37.72234375 213.046875 -38.40234375 213.046875 C-38.40234375 212.386875 -38.40234375 211.726875 -38.40234375 211.046875 C-39.06234375 211.046875 -39.72234375 211.046875 -40.40234375 211.046875 C-43.40234375 207.58533654 -43.40234375 207.58533654 -43.40234375 205.046875 C-44.06234375 205.046875 -44.72234375 205.046875 -45.40234375 205.046875 C-45.40234375 204.386875 -45.40234375 203.726875 -45.40234375 203.046875 C-46.06234375 203.046875 -46.72234375 203.046875 -47.40234375 203.046875 C-47.40234375 202.386875 -47.40234375 201.726875 -47.40234375 201.046875 C-48.06234375 201.046875 -48.72234375 201.046875 -49.40234375 201.046875 C-49.40234375 200.386875 -49.40234375 199.726875 -49.40234375 199.046875 C-50.39234375 198.716875 -51.38234375 198.386875 -52.40234375 198.046875 C-52.40234375 197.386875 -52.40234375 196.726875 -52.40234375 196.046875 C-53.06234375 196.046875 -53.72234375 196.046875 -54.40234375 196.046875 C-54.40234375 195.386875 -54.40234375 194.726875 -54.40234375 194.046875 C-55.26859375 193.6446875 -55.26859375 193.6446875 -56.15234375 193.234375 C-58.45784418 192.01758311 -60.42290567 190.74353621 -62.40234375 189.046875 C-62.40234375 188.386875 -62.40234375 187.726875 -62.40234375 187.046875 C-63.72234375 186.716875 -65.04234375 186.386875 -66.40234375 186.046875 C-66.40234375 185.386875 -66.40234375 184.726875 -66.40234375 184.046875 C-67.39234375 183.716875 -68.38234375 183.386875 -69.40234375 183.046875 C-69.40234375 182.386875 -69.40234375 181.726875 -69.40234375 181.046875 C-70.28176636 180.63151489 -70.28176636 180.63151489 -71.17895508 180.20776367 C-73.29116756 179.10492296 -75.0790728 177.90745694 -76.9765625 176.47265625 C-77.63930176 175.9734668 -78.30204102 175.47427734 -78.98486328 174.95996094 C-79.67950684 174.43176758 -80.37415039 173.90357422 -81.08984375 173.359375 C-81.81026855 172.81700195 -82.53069336 172.27462891 -83.27294922 171.71582031 C-86.91089032 168.96992568 -90.49352686 166.17603394 -94.02734375 163.296875 C-100.21714605 158.41714736 -107.36458274 154.5657555 -114.40234375 151.046875 C-113.74234375 149.066875 -113.08234375 147.086875 -112.40234375 145.046875 C-111.74234375 145.046875 -111.08234375 145.046875 -110.40234375 145.046875 C-109.93828125 143.62375 -109.93828125 143.62375 -109.46484375 142.171875 C-108.40234375 139.046875 -108.40234375 139.046875 -107.40234375 137.046875 C-106.74234375 137.046875 -106.08234375 137.046875 -105.40234375 137.046875 C-105.09296875 135.87125 -105.09296875 135.87125 -104.77734375 134.671875 C-102.92920985 129.79952198 -100.47196815 125.26760855 -97.40234375 121.046875 C-96.74234375 121.046875 -96.08234375 121.046875 -95.40234375 121.046875 C-95.13421875 120.33144531 -94.86609375 119.61601563 -94.58984375 118.87890625 C-93.38503068 116.00558561 -91.98997263 113.41349874 -90.40234375 110.734375 C-89.62890625 109.40986328 -89.62890625 109.40986328 -88.83984375 108.05859375 C-88.12828125 107.06279297 -88.12828125 107.06279297 -87.40234375 106.046875 C-86.74234375 106.046875 -86.08234375 106.046875 -85.40234375 106.046875 C-84.74234375 103.736875 -84.08234375 101.426875 -83.40234375 99.046875 C-82.74234375 99.046875 -82.08234375 99.046875 -81.40234375 99.046875 C-81.14066406 98.33144531 -80.87898438 97.61601563 -80.609375 96.87890625 C-79.35064227 93.92556895 -77.8433951 91.42108006 -76.08984375 88.734375 C-75.46335937 87.76628906 -74.836875 86.79820313 -74.19140625 85.80078125 C-73.60101563 84.89199219 -73.010625 83.98320313 -72.40234375 83.046875 C-69.27802767 78.11424264 -66.21861466 73.1407157 -63.15234375 68.171875 C-62.4665625 67.06070313 -61.78078125 65.94953125 -61.07421875 64.8046875 C-59.44952222 62.20894209 -59.44952222 62.20894209 -58.40234375 60.046875 C-57.74234375 60.046875 -57.08234375 60.046875 -56.40234375 60.046875 C-56.13421875 58.95375 -55.86609375 57.860625 -55.58984375 56.734375 C-54.40234375 53.046875 -54.40234375 53.046875 -53.05078125 51.703125 C-49.9364244 48.57400816 -48.14207685 44.40729435 -46.0234375 40.56640625 C-45.48847656 39.73496094 -44.95351563 38.90351562 -44.40234375 38.046875 C-43.74234375 38.046875 -43.08234375 38.046875 -42.40234375 38.046875 C-41.93828125 36.62375 -41.93828125 36.62375 -41.46484375 35.171875 C-40.40234375 32.046875 -40.40234375 32.046875 -39.40234375 30.046875 C-38.74234375 30.046875 -38.08234375 30.046875 -37.40234375 30.046875 C-37.11359375 29.11875 -36.82484375 28.190625 -36.52734375 27.234375 C-35.40234375 24.046875 -35.40234375 24.046875 -33.40234375 21.046875 C-32.74234375 21.046875 -32.08234375 21.046875 -31.40234375 21.046875 C-31.25796875 20.263125 -31.11359375 19.479375 -30.96484375 18.671875 C-30.40234375 16.046875 -30.40234375 16.046875 -29.40234375 14.046875 C-28.74234375 14.046875 -28.08234375 14.046875 -27.40234375 14.046875 C-27.13421875 13.304375 -26.86609375 12.561875 -26.58984375 11.796875 C-25.44957624 9.15625551 -24.30854069 7.19134656 -22.40234375 5.046875 C-21.74234375 5.046875 -21.08234375 5.046875 -20.40234375 5.046875 C-20.40234375 4.386875 -20.40234375 3.726875 -20.40234375 3.046875 C-13.72272464 -0.91141781 -7.55862324 -2.99886841 0 0 Z " fill="#FFFFFF" transform="translate(448.40234375,0.953125)"/>
<path d="" fill="#FFFFFF" transform="translate(0,0)"/>
</svg>
