<?xml version="1.0" encoding="UTF-8"?>
<svg id="Layer_2" xmlns="http://www.w3.org/2000/svg" viewBox="0 0 800 800">
  <defs>
    <style>
      .cls-1 {
        fill: #fff;
      }
    </style>
  </defs>
  <g id="_x32_">
    <g>
      <path class="cls-1" d="M592.78,478.66c27.64-47.15,43.53-102.02,43.53-160.51s-15.88-113.36-43.53-160.51c-27.64-47.1-67.02-86.48-114.12-114.12C431.51,15.88,376.64,0,318.15,0s-113.36,15.88-160.51,43.53c-47.1,27.64-86.48,67.02-114.12,114.12C15.88,204.8,0,259.67,0,318.16s15.88,113.36,43.53,160.51c27.64,47.1,67.02,86.48,114.12,114.12,47.15,27.64,102.02,43.53,160.51,43.53s113.36-15.88,160.51-43.53c47.1-27.64,86.48-67.02,114.12-114.12ZM356.15,470.27c-12.17,3.04-24.9,4.66-37.99,4.66s-25.82-1.61-37.99-4.66c-55.98-13.97-100.15-58.14-114.12-114.12-3.04-12.17-4.66-24.9-4.66-37.99s1.61-25.82,4.66-37.99c13.97-55.98,58.14-100.15,114.12-114.12,12.17-3.04,24.9-4.66,37.99-4.66s25.82,1.61,37.99,4.66c55.98,13.97,100.15,58.14,114.12,114.12,3.04,12.17,4.66,24.9,4.66,37.99s-1.61,25.82-4.66,37.99c-13.97,55.98-58.14,100.15-114.12,114.12Z"/>
      <path class="cls-1" d="M776.36,662.25l-133.37-133.37c-29.62,45.53-68.59,84.5-114.12,114.12l133.37,133.37c15.75,15.75,36.4,23.63,57.06,23.63s41.31-7.88,57.06-23.63c31.52-31.52,31.52-82.6,0-114.12Z"/>
    </g>
  </g>
</svg>