<?xml version="1.0" encoding="UTF-8"?>
<svg id="Layer_2" xmlns="http://www.w3.org/2000/svg" viewBox="0 0 666.67 600">
  <defs>
    <style>
      .cls-1 {
        fill: none;
        stroke: #fff;
        stroke-linecap: round;
        stroke-linejoin: round;
        stroke-width: 66.67px;
      }
    </style>
  </defs>
  <g id="Layer_1-2" data-name="Layer_1">
    <path class="cls-1" d="M500,466.67h.33M453.33,366.67h80c31.06,0,46.59,0,58.85,5.07,16.33,6.77,29.31,19.75,36.08,36.08,5.07,12.25,5.07,27.78,5.07,58.85s0,46.59-5.07,58.85c-6.77,16.33-19.75,29.31-36.08,36.08-12.25,5.07-27.78,5.07-58.85,5.07H133.33c-31.06,0-46.59,0-58.85-5.07-16.34-6.77-29.31-19.75-36.08-36.08-5.07-12.25-5.07-27.78-5.07-58.85s0-46.59,5.07-58.85c6.77-16.33,19.74-29.31,36.08-36.08,12.25-5.07,27.78-5.07,58.85-5.07h80M333.33,400V33.33M333.33,33.33l100,100M333.33,33.33l-100,100"/>
  </g>
</svg>